<svg width="20" height="21" viewBox="0 0 20 21" fill="none" xmlns="http://www.w3.org/2000/svg">
<path d="M10.4188 18C10.744 18 11.0079 17.7147 11.0079 17.3632V4.65952L15.2943 9.52398C15.41 9.65548 15.5653 9.7217 15.7208 9.7217C15.8666 9.7217 16.013 9.66344 16.127 9.54595C16.3626 9.30333 16.3717 8.90024 16.1473 8.64553L11.2521 3.09015C11.0294 2.84976 10.7337 2.71699 10.4188 2.71699C10.104 2.71699 9.80823 2.84976 9.57583 3.10129L4.69038 8.64584C4.46593 8.90056 4.47506 9.30365 4.7107 9.54627C4.94635 9.78889 5.31954 9.77902 5.5437 9.5243L9.82973 4.63946V17.3632C9.82973 17.7147 10.0936 18 10.4188 18Z" fill="#6CD74E"/>
</svg>
