<svg width="27" height="27" viewBox="0 0 27 27" fill="none" xmlns="http://www.w3.org/2000/svg">
<g clip-path="url(#clip0)">
<path d="M9.76697 24.5643C10.4008 25.9972 11.8351 27 13.5001 27C15.165 27 16.5993 25.9972 17.2332 24.5643H9.76697Z" fill="white"/>
<path d="M13.4998 2.57959C14.5985 2.57959 15.6534 2.77344 16.6324 3.12835V3.00776C16.6324 1.34927 15.2831 0 13.6247 0H13.3754C11.7169 0 10.3677 1.34927 10.3677 3.00776V3.12682C11.3461 2.77297 12.4008 2.57959 13.4998 2.57959Z" fill="white"/>
<path d="M23.3866 22.9797H3.61351C3.23942 22.9797 2.89677 22.7274 2.81897 22.3614C2.74195 21.9991 2.90707 21.6415 3.24207 21.4868C3.32156 21.4352 3.91992 21.0168 4.51897 19.7509C5.61919 17.4263 5.85012 14.1516 5.85012 11.8138C5.85012 7.59578 9.28178 4.16423 13.4998 4.16423C17.7078 4.16423 21.1331 7.57924 21.1494 11.7835C21.1498 11.7936 21.15 11.8037 21.15 11.8138C21.15 14.1516 21.3809 17.4263 22.4811 19.7509C23.0802 21.0168 23.6785 21.4353 23.758 21.4868C24.093 21.6415 24.2582 21.9991 24.1811 22.3614C24.1033 22.7273 23.7607 22.9797 23.3866 22.9797ZM23.7669 21.4924H23.7674H23.7669Z" fill="white"/>
</g>
<defs>
<clipPath id="clip0">
<rect width="27" height="27" fill="white"/>
</clipPath>
</defs>
</svg>
