<svg width="93" height="81" viewBox="0 0 93 81" fill="none" xmlns="http://www.w3.org/2000/svg">
<rect x="0.470276" width="91.5494" height="81" rx="5" fill="white"/>
<rect x="1.47028" y="1" width="89.5494" height="79" rx="4" stroke="black" stroke-opacity="0.4" stroke-width="2"/>
<g clip-path="url(#clip0)">
<path d="M20.8282 36.6579V29.1579C21.5628 29.1579 22.1589 28.5979 22.1589 27.9079C22.1589 27.2179 21.5628 26.6579 20.8282 26.6579C17.1584 26.6579 14.175 29.4629 14.175 32.9079V35.4079C14.175 37.4754 15.966 39.1579 18.167 39.1579H20.8282C21.5628 39.1579 22.1589 38.5979 22.1589 37.9079C22.1589 37.2179 21.5628 36.6579 20.8282 36.6579Z" fill="#071B4A"/>
<path d="M71.3934 26.6579C70.6589 26.6579 70.0627 27.2179 70.0627 27.9079C70.0627 28.5979 70.6589 29.1579 71.3934 29.1579V36.6579C70.6589 36.6579 70.0627 37.218 70.0627 37.908C70.0627 38.598 70.6589 39.1579 71.3934 39.1579H74.0547C76.2556 39.1579 78.0467 37.4754 78.0467 35.4079V32.9079C78.0467 29.4629 75.0633 26.6579 71.3934 26.6579Z" fill="#071B4A"/>
<path d="M36.7962 61.6579C36.0617 61.6579 35.4655 62.2179 35.4655 62.9079H27.4815C27.4815 62.2179 26.8854 61.6579 26.1508 61.6579C25.4163 61.6579 24.8201 62.2179 24.8201 62.9079V65.4079C24.8201 67.4754 26.6112 69.1579 28.8121 69.1579H34.1349C36.3359 69.1579 38.1269 67.4754 38.1269 65.4079V62.9079C38.1269 62.2179 37.5307 61.6579 36.7962 61.6579Z" fill="#071B4A"/>
<path d="M66.0707 61.6579C65.3362 61.6579 64.74 62.2179 64.74 62.9079H56.7561C56.7561 62.2179 56.1599 61.6579 55.4254 61.6579C54.6908 61.6579 54.0948 62.2179 54.0948 62.9079V65.4079C54.0948 67.4754 55.8858 69.1579 58.0868 69.1579H63.4094C65.6104 69.1579 67.4014 67.4754 67.4014 65.4079V62.9079C67.4014 62.2179 66.8052 61.6579 66.0707 61.6579Z" fill="#071B4A"/>
<path d="M66.0708 9.1579H26.1509C22.4809 9.1579 19.4977 11.9629 19.4977 15.4079V57.9079C19.4977 61.3529 22.4811 64.1579 26.1509 64.1579H66.0708C69.7408 64.1579 72.724 61.3529 72.724 57.9079V15.4079C72.724 11.9629 69.7408 9.1579 66.0708 9.1579ZM31.4736 14.1579H60.7482C62.9492 14.1579 64.7402 15.8404 64.7402 17.9079C64.7402 19.9755 62.9492 21.6579 60.7482 21.6579H31.4736C29.2727 21.6579 27.4816 19.9755 27.4816 17.9079C27.4816 15.8404 29.2727 14.1579 31.4736 14.1579ZM31.4736 56.6579C29.2727 56.6579 27.4816 54.9754 27.4816 52.9079C27.4816 50.8403 29.2727 49.1579 31.4736 49.1579C33.6746 49.1579 35.4656 50.8403 35.4656 52.9079C35.4656 54.9754 33.6745 56.6579 31.4736 56.6579ZM60.7481 56.6579C58.5471 56.6579 56.7561 54.9754 56.7561 52.9079C56.7561 50.8403 58.5471 49.1579 60.7481 49.1579C62.949 49.1579 64.7401 50.8403 64.7401 52.9079C64.7401 54.9754 62.949 56.6579 60.7481 56.6579ZM67.4015 40.4079C67.4015 42.4755 65.6104 44.1579 63.4095 44.1579H28.8122C26.6113 44.1579 24.8202 42.4755 24.8202 40.4079V27.9079C24.8202 25.8404 26.6113 24.1579 28.8122 24.1579H63.4094C65.6103 24.1579 67.4013 25.8404 67.4013 27.9079V40.4079H67.4015Z" fill="#071B4A"/>
</g>
<defs>
<clipPath id="clip0">
<rect width="63.8717" height="60" fill="white" transform="translate(14.175 9.1579)"/>
</clipPath>
</defs>
</svg>
