<svg width="27" height="27" viewBox="0 0 27 27" fill="none" xmlns="http://www.w3.org/2000/svg">
<path d="M21.9833 22.9865H5.01704C4.55754 22.986 4.117 22.8033 3.79208 22.4783C3.46717 22.1534 3.28442 21.7129 3.28394 21.2534V2.8277C3.28442 2.3682 3.46717 1.92766 3.79208 1.60275C4.117 1.27783 4.55754 1.09508 5.01704 1.0946H21.9833C22.4428 1.09508 22.8833 1.27783 23.2082 1.60275C23.5331 1.92766 23.7159 2.3682 23.7164 2.8277V21.2534C23.7159 21.7129 23.5331 22.1534 23.2082 22.4783C22.8833 22.8033 22.4428 22.986 21.9833 22.9865ZM5.01704 1.82433C4.75102 1.82462 4.49598 1.93042 4.30787 2.11853C4.11976 2.30664 4.01396 2.56168 4.01367 2.8277V21.2534C4.01396 21.5194 4.11976 21.7744 4.30787 21.9626C4.49598 22.1507 4.75102 22.2565 5.01704 22.2568H21.9833C22.2493 22.2565 22.5043 22.1507 22.6924 21.9626C22.8805 21.7744 22.9863 21.5194 22.9866 21.2534V2.8277C22.9863 2.56168 22.8805 2.30664 22.6924 2.11853C22.5043 1.93042 22.2493 1.82462 21.9833 1.82433H5.01704Z" fill="#6074E2"/>
<path d="M23.7164 14.9595H3.28394V4.74324H23.7164V14.9595ZM4.01367 14.2297H22.9866V5.47297H4.01367V14.2297Z" fill="#6074E2"/>
<path d="M18.973 20.4324C18.6122 20.4324 18.2595 20.3254 17.9595 20.125C17.6595 19.9245 17.4256 19.6396 17.2876 19.3062C17.1495 18.9729 17.1133 18.6061 17.1837 18.2522C17.2541 17.8983 17.4279 17.5732 17.683 17.3181C17.9382 17.063 18.2632 16.8892 18.6171 16.8188C18.971 16.7484 19.3378 16.7846 19.6711 16.9226C20.0045 17.0607 20.2894 17.2945 20.4899 17.5946C20.6903 17.8946 20.7973 18.2473 20.7973 18.6081C20.7968 19.0918 20.6044 19.5554 20.2624 19.8974C19.9204 20.2394 19.4567 20.4318 18.973 20.4324ZM18.973 17.5135C18.7565 17.5135 18.5449 17.5777 18.3649 17.698C18.1849 17.8182 18.0446 17.9892 17.9617 18.1892C17.8789 18.3892 17.8572 18.6093 17.8994 18.8216C17.9417 19.034 18.0459 19.229 18.199 19.3821C18.3521 19.5352 18.5471 19.6394 18.7595 19.6817C18.9718 19.7239 19.1919 19.7022 19.3919 19.6194C19.5919 19.5365 19.7629 19.3962 19.8831 19.2162C20.0034 19.0362 20.0676 18.8246 20.0676 18.6081C20.0676 18.3178 19.9523 18.0394 19.747 17.8341C19.5417 17.6288 19.2633 17.5135 18.973 17.5135Z" fill="#6074E2"/>
<path d="M8.02721 20.4324C7.66639 20.4324 7.31367 20.3254 7.01367 20.125C6.71366 19.9245 6.47983 19.6396 6.34175 19.3062C6.20367 18.9729 6.16754 18.6061 6.23794 18.2522C6.30833 17.8983 6.48208 17.5732 6.73721 17.3181C6.99235 17.063 7.31741 16.8892 7.6713 16.8188C8.02518 16.7484 8.39199 16.7846 8.72535 16.9226C9.0587 17.0607 9.34362 17.2945 9.54408 17.5946C9.74454 17.8946 9.85153 18.2473 9.85153 18.6081C9.85095 19.0918 9.65856 19.5554 9.31656 19.8974C8.97456 20.2394 8.51087 20.4318 8.02721 20.4324ZM8.02721 17.5135C7.81072 17.5135 7.59909 17.5777 7.41908 17.698C7.23908 17.8182 7.09878 17.9892 7.01593 18.1892C6.93309 18.3892 6.91141 18.6093 6.95364 18.8216C6.99588 19.034 7.10013 19.229 7.25321 19.3821C7.40629 19.5352 7.60133 19.6394 7.81366 19.6817C8.02599 19.7239 8.24608 19.7022 8.44609 19.6194C8.6461 19.5365 8.81705 19.3962 8.93733 19.2162C9.0576 19.0362 9.1218 18.8246 9.1218 18.6081C9.1218 18.3178 9.00648 18.0394 8.8012 17.8341C8.59593 17.6288 8.31751 17.5135 8.02721 17.5135Z" fill="#6074E2"/>
<path d="M20.3643 25.9054H17.9471C17.6388 25.9051 17.3431 25.7825 17.1251 25.5645C16.907 25.3465 16.7843 25.0509 16.7839 24.7426V22.2567H21.5272V24.7426C21.5268 25.0508 21.4042 25.3464 21.1862 25.5644C20.9682 25.7824 20.6726 25.905 20.3643 25.9054ZM17.5137 22.9865V24.7426C17.5139 24.8574 17.5596 24.9675 17.6409 25.0487C17.7221 25.1299 17.8323 25.1756 17.9471 25.1757H20.3643C20.4792 25.1755 20.5892 25.1298 20.6704 25.0486C20.7516 24.9674 20.7973 24.8574 20.7974 24.7426V22.9865H17.5137Z" fill="#6074E2"/>
<path d="M9.05356 25.9054H6.63633C6.32799 25.9051 6.03235 25.7825 5.81428 25.5645C5.59622 25.3465 5.47353 25.0509 5.47314 24.7426V22.2567H10.2164V24.7426C10.216 25.0508 10.0934 25.3464 9.87538 25.5644C9.65739 25.7824 9.36184 25.905 9.05356 25.9054ZM6.20287 22.9865V24.7426C6.20307 24.8574 6.24881 24.9675 6.33007 25.0487C6.41132 25.1299 6.52147 25.1756 6.63633 25.1757H9.05356C9.16837 25.1755 9.27842 25.1298 9.35959 25.0486C9.44077 24.9674 9.48646 24.8574 9.48666 24.7426V22.9865H6.20287Z" fill="#6074E2"/>
<path d="M25.9056 11.0069H23.3516V10.2772H25.1759V6.56757H23.7164V5.83784H25.9056V11.0069Z" fill="#6074E2"/>
<path d="M3.64878 11.0069H1.09473V5.83784H3.28392V6.56757H1.82446V10.2772H3.64878V11.0069Z" fill="#6074E2"/>
<path d="M13.1353 5.1081H13.865V14.5946H13.1353V5.1081Z" fill="#6074E2"/>
<path d="M11.311 18.2433H15.6894V18.973H11.311V18.2433Z" fill="#6074E2"/>
</svg>
