<svg width="27" height="27" viewBox="0 0 27 27" fill="none" xmlns="http://www.w3.org/2000/svg">
<path d="M13.0781 1.6875C13.0781 1.35184 12.9448 1.02992 12.7074 0.792568C12.4701 0.555217 12.1482 0.421875 11.8125 0.421875H1.6875C1.35184 0.421875 1.02992 0.555217 0.792568 0.792568C0.555217 1.02992 0.421875 1.35184 0.421875 1.6875V14.3438C0.421875 14.6794 0.555217 15.0013 0.792568 15.2387C1.02992 15.476 1.35184 15.6094 1.6875 15.6094H11.8125C12.1482 15.6094 12.4701 15.476 12.7074 15.2387C12.9448 15.0013 13.0781 14.6794 13.0781 14.3438V1.6875ZM12.2344 14.3438C12.2344 14.4556 12.1899 14.5629 12.1108 14.6421C12.0317 14.7212 11.9244 14.7656 11.8125 14.7656H1.6875C1.57561 14.7656 1.46831 14.7212 1.38919 14.6421C1.31007 14.5629 1.26562 14.4556 1.26562 14.3438V1.6875C1.26562 1.57561 1.31007 1.46831 1.38919 1.38919C1.46831 1.31007 1.57561 1.26562 1.6875 1.26562H11.8125C11.9244 1.26562 12.0317 1.31007 12.1108 1.38919C12.1899 1.46831 12.2344 1.57561 12.2344 1.6875V14.3438Z" fill="#6074E2"/>
<path d="M10.7034 3.40538L10.1609 3.18811C7.97047 2.31653 5.52953 2.31653 3.33914 3.18811L2.79661 3.40538C2.71833 3.43665 2.65121 3.49066 2.60391 3.56044C2.55661 3.63023 2.5313 3.71258 2.53125 3.79688V10.5469C2.53233 10.8077 2.61397 11.0618 2.76501 11.2745C2.91604 11.4871 3.12909 11.6479 3.375 11.7349V12.6563C3.375 12.7681 3.41945 12.8754 3.49856 12.9546C3.57768 13.0337 3.68499 13.0781 3.79688 13.0781H5.48438C5.59626 13.0781 5.70357 13.0337 5.78269 12.9546C5.8618 12.8754 5.90625 12.7681 5.90625 12.6563V11.8125H7.59375V12.6563C7.59375 12.7681 7.6382 12.8754 7.71731 12.9546C7.79643 13.0337 7.90374 13.0781 8.01562 13.0781H9.70312C9.81501 13.0781 9.92232 13.0337 10.0014 12.9546C10.0806 12.8754 10.125 12.7681 10.125 12.6563V11.7349C10.3709 11.6479 10.584 11.4871 10.735 11.2745C10.886 11.0618 10.9677 10.8077 10.9688 10.5469V3.79688C10.9687 3.71258 10.9434 3.63023 10.8961 3.56044C10.8488 3.49066 10.7817 3.43665 10.7034 3.40538ZM5.0625 12.2344H4.21875V11.8125H5.0625V12.2344ZM8.4375 12.2344V11.8125H9.28125V12.2344H8.4375ZM10.125 10.5469C10.125 10.6588 10.0806 10.7661 10.0014 10.8452C9.92232 10.9243 9.81501 10.9688 9.70312 10.9688H3.79688C3.68499 10.9688 3.57768 10.9243 3.49856 10.8452C3.41945 10.7661 3.375 10.6588 3.375 10.5469V4.08249L3.65217 3.97153C5.64153 3.17989 7.85847 3.17989 9.84783 3.97153L10.125 4.08249V10.5469Z" fill="#6074E2"/>
<path d="M9.28125 4.21875H4.21875C4.10686 4.21875 3.99956 4.2632 3.92044 4.34231C3.84132 4.42143 3.79688 4.52874 3.79688 4.64062V7.17188C3.79688 7.28376 3.84132 7.39107 3.92044 7.47019C3.99956 7.5493 4.10686 7.59375 4.21875 7.59375H9.28125C9.39314 7.59375 9.50044 7.5493 9.57956 7.47019C9.65868 7.39107 9.70312 7.28376 9.70312 7.17188V4.64062C9.70312 4.52874 9.65868 4.42143 9.57956 4.34231C9.50044 4.2632 9.39314 4.21875 9.28125 4.21875ZM4.64062 5.0625H6.32812V6.75H4.64062V5.0625ZM8.85938 6.75H7.17188V5.0625H8.85938V6.75Z" fill="#6074E2"/>
<path d="M8.85938 8.01562H4.64062V8.85938H8.85938V8.01562Z" fill="#6074E2"/>
<path d="M8.01562 9.28125H5.48438V10.125H8.01562V9.28125Z" fill="#6074E2"/>
<path d="M26.1562 0.421875H24.4688C24.3569 0.421875 24.2496 0.466322 24.1704 0.545439C24.0913 0.624556 24.0469 0.731862 24.0469 0.84375V3.375C21.3612 1.45953 18.1459 0.427425 14.847 0.421875H13.9219C13.81 0.421875 13.7027 0.466322 13.6236 0.545439C13.5444 0.624556 13.5 0.731862 13.5 0.84375V2.53125C13.5 2.64314 13.5444 2.75044 13.6236 2.82956C13.7027 2.90868 13.81 2.95312 13.9219 2.95312H14.847C18.1793 2.95832 21.4154 4.0704 24.0469 6.11466V26.1562C24.0469 26.2681 24.0913 26.3754 24.1704 26.4546C24.2496 26.5337 24.3569 26.5781 24.4688 26.5781H26.1562C26.2681 26.5781 26.3754 26.5337 26.4546 26.4546C26.5337 26.3754 26.5781 26.2681 26.5781 26.1562V0.84375C26.5781 0.731862 26.5337 0.624556 26.4546 0.545439C26.3754 0.466322 26.2681 0.421875 26.1562 0.421875ZM14.847 2.10938H14.3438V1.26562H14.847C18.1793 1.27082 21.4154 2.3829 24.0469 4.42716V5.0625C21.3612 3.14703 18.1459 2.11493 14.847 2.10938ZM25.7344 25.7344H24.8906V1.26562H25.7344V25.7344Z" fill="#6074E2"/>
<path d="M22.7812 13.0781H21.0938C20.9819 13.0781 20.8746 13.1226 20.7954 13.2017C20.7163 13.2808 20.6719 13.3881 20.6719 13.5V19.8281H13.5C13.3881 19.8281 13.2808 19.8726 13.2017 19.9517C13.1226 20.0308 13.0781 20.1381 13.0781 20.25V21.9375C13.0781 22.0494 13.1226 22.1567 13.2017 22.2358C13.2808 22.3149 13.3881 22.3594 13.5 22.3594H13.9219V26.1562C13.9219 26.2681 13.9663 26.3754 14.0454 26.4546C14.1246 26.5337 14.2319 26.5781 14.3438 26.5781H16.0312C16.1431 26.5781 16.2504 26.5337 16.3296 26.4546C16.4087 26.3754 16.4531 26.2681 16.4531 26.1562V22.3594H20.6719V26.1562C20.6719 26.2681 20.7163 26.3754 20.7954 26.4546C20.8746 26.5337 20.9819 26.5781 21.0938 26.5781H22.7812C22.8931 26.5781 23.0004 26.5337 23.0796 26.4546C23.1587 26.3754 23.2031 26.2681 23.2031 26.1562V13.5C23.2031 13.3881 23.1587 13.2808 23.0796 13.2017C23.0004 13.1226 22.8931 13.0781 22.7812 13.0781ZM15.6094 25.7344H14.7656V22.3594H15.6094V25.7344ZM13.9219 21.5156V20.6719H20.6719V21.5156H13.9219ZM22.3594 25.7344H21.5156V13.9219H22.3594V25.7344Z" fill="#6074E2"/>
</svg>
