<svg width="22" height="22" viewBox="0 0 22 22" fill="none" xmlns="http://www.w3.org/2000/svg">
<path d="M11.0597 0.37326C5.26973 0.37326 0.559662 5.08333 0.559662 10.8733C0.559662 16.6632 5.26973 21.3733 11.0597 21.3733C16.8496 21.3733 21.5597 16.6632 21.5597 10.8733C21.5597 5.08333 16.8496 0.37326 11.0597 0.37326ZM16.0533 16.3043C15.8827 16.4749 15.6587 16.5608 15.4347 16.5608C15.2107 16.5608 14.9866 16.4749 14.8161 16.3043L10.4411 11.9294C10.2765 11.7658 10.1847 11.5434 10.1847 11.3108V5.62326C10.1847 5.1394 10.5766 4.74831 11.0597 4.74831C11.5427 4.74831 11.9346 5.1394 11.9346 5.62326V10.9486L16.0533 15.0671C16.3954 15.4093 16.3954 15.9622 16.0533 16.3043Z" fill="#071B4A"/>
</svg>
