<svg width="22" height="20" viewBox="0 0 22 20" fill="none" xmlns="http://www.w3.org/2000/svg">
<g clip-path="url(#clip0)">
<path d="M20.9 1.12933H1.1C0.492479 1.12933 0 1.56271 0 2.09733V13.7133C0 14.2479 0.492479 14.6813 1.1 14.6813H9.0101L7.81 17.5853H6.6C6.39751 17.5853 6.23333 17.7298 6.23333 17.908C6.23333 18.0862 6.39751 18.2307 6.6 18.2307H15.4C15.6025 18.2307 15.7667 18.0862 15.7667 17.908C15.7667 17.7298 15.6025 17.5853 15.4 17.5853H14.19L12.9899 14.6813H20.9C21.5075 14.6813 22 14.2479 22 13.7133V2.09733C22 1.56271 21.5075 1.12933 20.9 1.12933ZM13.4097 17.5853H8.59027L9.79 14.6813H12.21L13.4097 17.5853ZM21.2667 2.42H20.1667C19.9642 2.42 19.8 2.56447 19.8 2.74266C19.8 2.92086 19.9642 3.06533 20.1667 3.06533H21.2667V12.1H12.8333C12.6308 12.1 12.4667 12.2445 12.4667 12.4227C12.4667 12.6009 12.6308 12.7453 12.8333 12.7453H21.2667V13.7133C21.2667 13.8915 21.1025 14.036 20.9 14.036H1.1C0.897508 14.036 0.733333 13.8915 0.733333 13.7133V12.7453H9.16667C9.36916 12.7453 9.53333 12.6009 9.53333 12.4227C9.53333 12.2445 9.36916 12.1 9.16667 12.1H0.733333V3.06533H18.7C18.9025 3.06533 19.0667 2.92086 19.0667 2.74266C19.0667 2.56447 18.9025 2.42 18.7 2.42H0.733333V2.09733C0.733333 1.91914 0.897508 1.77466 1.1 1.77466H20.9C21.1025 1.77466 21.2667 1.91914 21.2667 2.09733V2.42Z" fill="#6074E2"/>
<path d="M11.3666 12.1H10.6333C10.4308 12.1 10.2666 12.2445 10.2666 12.4227C10.2666 12.6008 10.4308 12.7453 10.6333 12.7453H11.3666C11.5691 12.7453 11.7333 12.6008 11.7333 12.4227C11.7333 12.2445 11.5691 12.1 11.3666 12.1Z" fill="#6074E2"/>
</g>
<defs>
<clipPath id="clip0">
<rect width="22" height="19.36" fill="white"/>
</clipPath>
</defs>
</svg>
