<svg width="18" height="25" viewBox="0 0 18 25" fill="none" xmlns="http://www.w3.org/2000/svg">
<path d="M8.97851 14.4176C11.644 14.4176 13.8131 12.1536 13.8131 9.37146C13.8131 6.58932 11.644 4.32532 8.97851 4.32532C6.31301 4.32532 4.14392 6.58932 4.14392 9.37146C4.14392 12.1536 6.31301 14.4176 8.97851 14.4176ZM6.7042 8.86178L8.28786 10.5147L11.2528 7.42002L12.2295 8.43939L8.28786 12.5535L5.72757 9.88114L6.7042 8.86178Z" fill="#071B4A"/>
<path d="M8.97853 24.606L16.1569 15.0005L16.1649 14.99C17.3373 13.3596 17.9571 11.4166 17.9571 9.37144C17.9571 4.2042 13.9291 0 8.97853 0C4.02793 0 0 4.2042 0 9.37144C0 11.4166 0.619792 13.3596 1.8002 15.0005L8.97853 24.606ZM8.97853 2.88352C12.4061 2.88352 15.1944 5.79389 15.1944 9.37144C15.1944 12.949 12.4061 15.8594 8.97853 15.8594C5.55097 15.8594 2.76262 12.949 2.76262 9.37144C2.76262 5.79389 5.55097 2.88352 8.97853 2.88352Z" fill="#071B4A"/>
</svg>
