<svg width="18" height="221" viewBox="0 0 18 221" fill="none" xmlns="http://www.w3.org/2000/svg">
<path d="M9.00005 0C5.32412 0 2.33337 2.99074 2.33337 6.66668C2.33337 7.7702 2.60927 8.86434 3.13376 9.8348L8.63548 19.7852C8.70873 19.9178 8.8483 20 9.00005 20C9.15181 20 9.29138 19.9178 9.36462 19.7852L14.8684 9.83152C15.3908 8.86434 15.6667 7.77016 15.6667 6.66664C15.6667 2.99074 12.676 0 9.00005 0ZM9.00005 10C7.16208 10 5.66673 8.50465 5.66673 6.66668C5.66673 4.82871 7.16208 3.33336 9.00005 3.33336C10.838 3.33336 12.3334 4.82871 12.3334 6.66668C12.3334 8.50465 10.838 10 9.00005 10Z" fill="#071B4A"/>
<path d="M9 35L9 29" stroke="#071B4A" stroke-opacity="0.22" stroke-width="2"/>
<line x1="9" y1="50" x2="9" y2="44" stroke="#071B4A" stroke-opacity="0.22" stroke-width="2"/>
<line x1="9" y1="64" x2="9" y2="58" stroke="#071B4A" stroke-opacity="0.22" stroke-width="2"/>
<line x1="9" y1="79" x2="9" y2="73" stroke="#071B4A" stroke-opacity="0.22" stroke-width="2"/>
<line x1="9" y1="93" x2="9" y2="87" stroke="#071B4A" stroke-opacity="0.22" stroke-width="2"/>
<line x1="9" y1="107" x2="9" y2="101" stroke="#071B4A" stroke-opacity="0.22" stroke-width="2"/>
<line x1="9" y1="121" x2="9" y2="115" stroke="#071B4A" stroke-opacity="0.22" stroke-width="2"/>
<line x1="9" y1="135" x2="9" y2="129" stroke="#071B4A" stroke-opacity="0.22" stroke-width="2"/>
<line x1="9" y1="149" x2="9" y2="143" stroke="#071B4A" stroke-opacity="0.22" stroke-width="2"/>
<line x1="9" y1="163" x2="9" y2="157" stroke="#071B4A" stroke-opacity="0.22" stroke-width="2"/>
<line x1="9" y1="177" x2="9" y2="171" stroke="#071B4A" stroke-opacity="0.22" stroke-width="2"/>
<line x1="9" y1="191" x2="9" y2="185" stroke="#071B4A" stroke-opacity="0.22" stroke-width="2"/>
<path d="M8.99996 211.063C11.6718 211.063 13.8461 208.854 13.8461 206.141C13.8461 203.427 11.6718 201.219 8.99996 201.219C6.32809 201.219 4.15381 203.427 4.15381 206.141C4.15381 208.854 6.32809 211.063 8.99996 211.063ZM6.72022 205.643L8.30766 207.256L11.2797 204.237L12.2587 205.232L8.30766 209.244L5.74125 206.638L6.72022 205.643Z" fill="#071B4A"/>
<path d="M9 221L16.1955 211.631L16.2036 211.621C17.3787 210.031 18 208.135 18 206.141C18 201.101 13.9624 197 9 197C4.03756 197 0 201.101 0 206.141C0 208.135 0.621274 210.031 1.80451 211.631L9 221ZM9 199.812C12.4358 199.812 15.2308 202.651 15.2308 206.141C15.2308 209.63 12.4358 212.469 9 212.469C5.56424 212.469 2.76923 209.63 2.76923 206.141C2.76923 202.651 5.56424 199.812 9 199.812Z" fill="#071B4A"/>
</svg>
