<svg width="23" height="124" viewBox="0 0 23 124" fill="none" xmlns="http://www.w3.org/2000/svg">
<g clip-path="url(#clip0)">
<path fill-rule="evenodd" clip-rule="evenodd" d="M5.59318 123.072H3.72878C3.21421 123.072 2.79659 122.543 2.79659 121.892V120.712C2.30252 120.712 1.82804 120.463 1.47846 120.02C1.12889 119.578 0.932196 118.977 0.932196 118.351V108.91C0.417624 108.91 0 108.381 0 107.73V104.189C0 103.538 0.417624 103.009 0.932196 103.009V98.2883C0.932196 96.3327 2.18414 94.7477 3.72878 94.7477H18.6439C20.1886 94.7477 21.4405 96.3327 21.4405 98.2883V103.009C21.9551 103.009 22.3727 103.538 22.3727 104.189V107.73C22.3727 108.381 21.9551 108.91 21.4405 108.91V118.351C21.4405 118.977 21.2438 119.578 20.8942 120.02C20.5447 120.463 20.0702 120.712 19.5761 120.712V121.892C19.5761 122.543 19.1585 123.072 18.6439 123.072H16.7795C16.265 123.072 15.8473 122.543 15.8473 121.892V120.712H6.52537V121.892C6.52537 122.543 6.10775 123.072 5.59318 123.072ZM4.19488 114.811C4.96674 114.811 5.59318 115.604 5.59318 116.581C5.59318 117.558 4.96674 118.351 4.19488 118.351C3.42302 118.351 2.79659 117.558 2.79659 116.581C2.79659 115.604 3.42302 114.811 4.19488 114.811ZM18.1778 114.811C18.9497 114.811 19.5761 115.604 19.5761 116.581C19.5761 117.558 18.9497 118.351 18.1778 118.351C17.406 118.351 16.7795 117.558 16.7795 116.581C16.7795 115.604 17.406 114.811 18.1778 114.811ZM13.5168 115.991H8.85586C8.59858 115.991 8.38977 116.255 8.38977 116.581C8.38977 116.907 8.59858 117.171 8.85586 117.171H13.5168C13.7741 117.171 13.9829 116.907 13.9829 116.581C13.9829 116.255 13.7741 115.991 13.5168 115.991ZM19.5761 101.239C19.5761 100.913 19.3673 100.649 19.11 100.649H3.26269C3.0054 100.649 2.79659 100.913 2.79659 101.239V111.27C2.79659 111.27 5.68453 112.45 11.1864 112.45C16.6882 112.45 19.5761 111.27 19.5761 111.27V101.239ZM14.9151 97.1081H7.45757V98.2883H14.9151V97.1081Z" fill="black"/>
</g>
<circle cx="11.8145" cy="79.2477" r="3.5" fill="black" fill-opacity="0.5"/>
<circle cx="11.8145" cy="61.2477" r="3.5" fill="black" fill-opacity="0.5"/>
<circle cx="11.8145" cy="44.2477" r="3.5" fill="black" fill-opacity="0.5"/>
<g clip-path="url(#clip1)">
<path fill-rule="evenodd" clip-rule="evenodd" d="M5.59318 29.0721H3.72878C3.21421 29.0721 2.79659 28.5433 2.79659 27.8919V26.7117C2.30252 26.7117 1.82804 26.4627 1.47846 26.0201C1.12889 25.5776 0.932196 24.9768 0.932196 24.3513V14.9099C0.417624 14.9099 0 14.3812 0 13.7297V10.1892C0 9.53772 0.417624 9.009 0.932196 9.009V4.28828C0.932196 2.33272 2.18414 0.747742 3.72878 0.747742H18.6439C20.1886 0.747742 21.4405 2.33272 21.4405 4.28828V9.009C21.9551 9.009 22.3727 9.53772 22.3727 10.1892V13.7297C22.3727 14.3812 21.9551 14.9099 21.4405 14.9099V24.3513C21.4405 24.9768 21.2438 25.5776 20.8942 26.0201C20.5447 26.4627 20.0702 26.7117 19.5761 26.7117V27.8919C19.5761 28.5433 19.1585 29.0721 18.6439 29.0721H16.7795C16.265 29.0721 15.8473 28.5433 15.8473 27.8919V26.7117H6.52537V27.8919C6.52537 28.5433 6.10775 29.0721 5.59318 29.0721ZM4.19488 20.8108C4.96674 20.8108 5.59318 21.6039 5.59318 22.5811C5.59318 23.5583 4.96674 24.3513 4.19488 24.3513C3.42302 24.3513 2.79659 23.5583 2.79659 22.5811C2.79659 21.6039 3.42302 20.8108 4.19488 20.8108ZM18.1778 20.8108C18.9497 20.8108 19.5761 21.6039 19.5761 22.5811C19.5761 23.5583 18.9497 24.3513 18.1778 24.3513C17.406 24.3513 16.7795 23.5583 16.7795 22.5811C16.7795 21.6039 17.406 20.8108 18.1778 20.8108ZM13.5168 21.991H8.85586C8.59858 21.991 8.38977 22.2553 8.38977 22.5811C8.38977 22.9068 8.59858 23.1712 8.85586 23.1712H13.5168C13.7741 23.1712 13.9829 22.9068 13.9829 22.5811C13.9829 22.2553 13.7741 21.991 13.5168 21.991ZM19.5761 7.23873C19.5761 6.913 19.3673 6.64864 19.11 6.64864H3.26269C3.0054 6.64864 2.79659 6.913 2.79659 7.23873V17.2703C2.79659 17.2703 5.68453 18.4504 11.1864 18.4504C16.6882 18.4504 19.5761 17.2703 19.5761 17.2703V7.23873ZM14.9151 3.1081H7.45757V4.28828H14.9151V3.1081Z" fill="black"/>
</g>
<defs>
<clipPath id="clip0">
<rect width="22.3727" height="28.3243" fill="black" transform="translate(0 94.7477)"/>
</clipPath>
<clipPath id="clip1">
<rect width="22.3727" height="28.3243" fill="black" transform="translate(0 0.747742)"/>
</clipPath>
</defs>
</svg>
