<svg width="24" height="137" viewBox="0 0 24 137" fill="none" xmlns="http://www.w3.org/2000/svg">
<path d="M12 36V31" stroke="#071B4A" stroke-opacity="0.22" stroke-width="2"/>
<path d="M12 50.1675V45.1675" stroke="#071B4A" stroke-opacity="0.22" stroke-width="2"/>
<path d="M12 64.1675V59.1675" stroke="#071B4A" stroke-opacity="0.22" stroke-width="2"/>
<path d="M12 78.1675V73.1675" stroke="#071B4A" stroke-opacity="0.22" stroke-width="2"/>
<path d="M12 92.1675V87.1675" stroke="#071B4A" stroke-opacity="0.22" stroke-width="2"/>
<path d="M12 106.167V101.167" stroke="#071B4A" stroke-opacity="0.22" stroke-width="2"/>
<path d="M12 0C7.58889 0 4 3.58889 4 8.00002C4 9.32423 4.33108 10.6372 4.96047 11.8018L11.5625 23.7422C11.6504 23.9014 11.8179 24 12 24C12.1821 24 12.3496 23.9014 12.4375 23.7422L19.042 11.7978C19.669 10.6372 20 9.32419 20 7.99997C20 3.58889 16.4111 0 12 0ZM12 12C9.79445 12 8.00003 10.2056 8.00003 8.00002C8.00003 5.79445 9.79445 4.00003 12 4.00003C14.2056 4.00003 16 5.79445 16 8.00002C16 10.2056 14.2056 12 12 12Z" fill="#071B4A"/>
<path d="M11.9785 126.418C14.644 126.418 16.8131 124.154 16.8131 121.371C16.8131 118.589 14.644 116.325 11.9785 116.325C9.31301 116.325 7.14392 118.589 7.14392 121.371C7.14392 124.154 9.31301 126.418 11.9785 126.418ZM9.7042 120.862L11.2879 122.515L14.2528 119.42L15.2295 120.439L11.2879 124.553L8.72757 121.881L9.7042 120.862Z" fill="#071B4A"/>
<path d="M11.9785 136.606L19.1569 127.001L19.1649 126.99C20.3373 125.36 20.9571 123.417 20.9571 121.371C20.9571 116.204 16.9291 112 11.9785 112C7.02793 112 3 116.204 3 121.371C3 123.417 3.61979 125.36 4.8002 127.001L11.9785 136.606ZM11.9785 114.884C15.4061 114.884 18.1944 117.794 18.1944 121.371C18.1944 124.949 15.4061 127.859 11.9785 127.859C8.55097 127.859 5.76262 124.949 5.76262 121.371C5.76262 117.794 8.55097 114.884 11.9785 114.884Z" fill="#071B4A"/>
</svg>
