<svg width="19" height="15" viewBox="0 0 19 15" fill="none" xmlns="http://www.w3.org/2000/svg">
<g clip-path="url(#clip0)">
<path d="M9.41679 3.94112L3.1755 8.35136C3.1755 8.35758 3.17368 8.36674 3.17003 8.37922C3.16645 8.3916 3.16455 8.4006 3.16455 8.40698V12.8728C3.16455 13.0341 3.23333 13.1738 3.37084 13.2915C3.50832 13.4092 3.67111 13.4685 3.85927 13.4685H8.02728V9.89568H10.8063V13.4686H14.9743C15.1624 13.4686 15.3254 13.4095 15.4627 13.2915C15.6003 13.1739 15.6693 13.0341 15.6693 12.8728V8.40698C15.6693 8.38222 15.6653 8.36351 15.6583 8.35136L9.41679 3.94112Z" fill="#6074E2"/>
<path d="M18.046 7.34649L15.669 5.65318V1.85715C15.669 1.77037 15.6365 1.699 15.5711 1.64314C15.5064 1.58735 15.4231 1.55946 15.3216 1.55946H13.2376C13.1362 1.55946 13.053 1.58735 12.9878 1.64314C12.9228 1.699 12.8902 1.7704 12.8902 1.85715V3.67139L10.2418 1.77333C10.0105 1.61205 9.73544 1.53143 9.417 1.53143C9.09859 1.53143 8.8236 1.61205 8.59206 1.77333L0.787365 7.34649C0.715015 7.39603 0.675362 7.4627 0.667986 7.54645C0.660648 7.63013 0.685931 7.70323 0.743909 7.76521L1.41688 8.45372C1.47486 8.50951 1.55075 8.54363 1.64484 8.55611C1.73172 8.56237 1.81859 8.5406 1.90546 8.491L9.41677 3.12246L16.9282 8.49097C16.9862 8.53424 17.062 8.55585 17.1561 8.55585H17.1887C17.2827 8.5436 17.3584 8.50925 17.4167 8.45359L18.0897 7.76518C18.1476 7.70306 18.173 7.6301 18.1654 7.54632C18.158 7.4628 18.1182 7.39612 18.046 7.34649Z" fill="#6074E2"/>
</g>
<defs>
<clipPath id="clip0">
<rect width="17.5" height="15" fill="white" transform="translate(0.666748)"/>
</clipPath>
</defs>
</svg>
