<svg width="21" height="20" viewBox="0 0 21 20" fill="none" xmlns="http://www.w3.org/2000/svg">
<g clip-path="url(#clip0)">
<path d="M14.2456 0H6.74561C3.29436 0 0.495605 2.79875 0.495605 6.25V13.75C0.495605 17.2013 3.29436 20 6.74561 20H14.2456C17.6969 20 20.4956 17.2013 20.4956 13.75V6.25C20.4956 2.79875 17.6969 0 14.2456 0ZM18.6206 13.75C18.6206 16.1625 16.6581 18.125 14.2456 18.125H6.74561C4.33311 18.125 2.37061 16.1625 2.37061 13.75V6.25C2.37061 3.8375 4.33311 1.875 6.74561 1.875H14.2456C16.6581 1.875 18.6206 3.8375 18.6206 6.25V13.75Z" fill="#B52D34"/>
<path d="M10.4956 5C7.73436 5 5.49561 7.23875 5.49561 10C5.49561 12.7613 7.73436 15 10.4956 15C13.2569 15 15.4956 12.7613 15.4956 10C15.4956 7.23875 13.2569 5 10.4956 5ZM10.4956 13.125C8.77311 13.125 7.37061 11.7225 7.37061 10C7.37061 8.27625 8.77311 6.875 10.4956 6.875C12.2181 6.875 13.6206 8.27625 13.6206 10C13.6206 11.7225 12.2181 13.125 10.4956 13.125Z" fill="#B52D34"/>
<path d="M15.8706 5.29124C16.2386 5.29124 16.5368 4.99295 16.5368 4.62499C16.5368 4.25703 16.2386 3.95874 15.8706 3.95874C15.5026 3.95874 15.2043 4.25703 15.2043 4.62499C15.2043 4.99295 15.5026 5.29124 15.8706 5.29124Z" fill="#B52D34"/>
</g>
<defs>
<clipPath id="clip0">
<rect width="20" height="20" fill="white" transform="translate(0.495605)"/>
</clipPath>
</defs>
</svg>
