<svg width="27" height="27" viewBox="0 0 27 27" fill="none" xmlns="http://www.w3.org/2000/svg">
<path d="M13.5 0C8.0479 0 3.6123 4.43559 3.6123 9.8877C3.6123 11.9236 4.22682 13.8794 5.38803 15.5416L13.1745 26.8291C13.2483 26.9361 13.37 27 13.5 27C13.63 27 13.7517 26.9361 13.8255 26.8291L21.6106 15.5436C22.7732 13.8794 23.3877 11.9236 23.3877 9.8877C23.3877 4.43559 18.9521 0 13.5 0ZM20.9609 15.0924L13.5 25.908L6.03782 15.0905C4.96853 13.5599 4.40332 11.7608 4.40332 9.8877C4.40332 4.87176 8.48406 0.791016 13.5 0.791016C18.5159 0.791016 22.5967 4.87176 22.5967 9.8877C22.5967 11.7608 22.0315 13.5599 20.9609 15.0924Z" fill="#6074E2"/>
<path d="M18.6416 9.8877C18.6416 7.05259 16.3351 4.74609 13.5 4.74609C10.6649 4.74609 8.3584 7.05259 8.3584 9.8877C8.3584 12.7228 10.6649 15.0293 13.5 15.0293C16.3351 15.0293 18.6416 12.7228 18.6416 9.8877ZM9.14941 9.8877C9.14941 7.48876 11.1011 5.53711 13.5 5.53711C15.8989 5.53711 17.8506 7.48876 17.8506 9.8877C17.8506 12.2866 15.8989 14.2383 13.5 14.2383C11.1011 14.2383 9.14941 12.2866 9.14941 9.8877Z" fill="#6074E2"/>
<path d="M13.5 1.58203C11.588 1.58203 9.72121 2.24791 8.24365 3.45705C8.07458 3.59538 8.04969 3.84455 8.18801 4.01361C8.32634 4.18268 8.57551 4.20762 8.74457 4.06925C10.0812 2.97543 11.7701 2.37305 13.5 2.37305C17.6436 2.37305 21.0146 5.74409 21.0146 9.8877C21.0146 14.0313 17.6436 17.4023 13.5 17.4023C9.3564 17.4023 5.98535 14.0313 5.98535 9.8877C5.98535 8.15774 6.58774 6.46887 7.68155 5.13227C7.81987 4.9632 7.79498 4.71403 7.62597 4.57571C7.45696 4.43739 7.20773 4.46228 7.06941 4.63129C5.86021 6.10891 5.19434 7.97565 5.19434 9.8877C5.19434 14.4675 8.92023 18.1934 13.5 18.1934C18.0798 18.1934 21.8057 14.4675 21.8057 9.8877C21.8057 5.30793 18.0798 1.58203 13.5 1.58203Z" fill="#6074E2"/>
</svg>
