<svg width="13" height="13" viewBox="0 0 13 13" fill="none" xmlns="http://www.w3.org/2000/svg">
<path d="M9.06077 7.36077C10.5301 5.27533 10.0387 2.38762 7.9639 0.911135C5.88915 -0.565355 3.01622 -0.0717803 1.5473 2.014C0.0783665 4.09943 0.569414 6.98679 2.64452 8.46328C4.12538 9.51711 6.08325 9.59826 7.6452 8.67108L11.039 12.0619C11.4054 12.4496 12.0151 12.4652 12.4009 12.0968C12.7866 11.7288 12.8021 11.116 12.436 10.7283C12.4244 10.7159 12.4132 10.7047 12.4009 10.693L9.06077 7.36077ZM5.30123 7.67688C3.66171 7.67723 2.33248 6.34222 2.33143 4.69426C2.33108 3.04631 3.65925 1.71024 5.29912 1.70953C6.93653 1.70883 8.26506 3.04172 8.26822 4.68756C8.27103 6.33587 6.94355 7.67406 5.30333 7.67688C5.30263 7.67688 5.30228 7.67688 5.30123 7.67688Z" fill="#071B4A" fill-opacity="0.49"/>
</svg>
