<svg width="20" height="17" viewBox="0 0 20 17" fill="none" xmlns="http://www.w3.org/2000/svg">
<path d="M19.5485 16.758L15.3888 12.7422C16.3998 11.3847 16.9556 9.76267 16.9556 8.05522C16.9556 5.90448 16.0882 3.88181 14.5104 2.36021C12.9361 0.839263 10.8392 -1.52588e-05 8.60964 -1.52588e-05C6.38078 -1.52588e-05 4.28459 0.837293 2.70887 2.36021C1.13316 3.8805 0.265015 5.90383 0.265015 8.05522C0.265015 10.2066 1.13248 12.2293 2.70887 13.7515C4.28459 15.2725 6.3801 16.1118 8.60964 16.1118C10.3779 16.1118 12.057 15.5779 13.4647 14.5994L17.6244 18.6152C17.8911 18.8719 18.2381 19 18.5865 19C18.9355 19 19.2832 18.8719 19.5485 18.6152C20.0799 18.1016 20.0799 17.2709 19.5485 16.758ZM4.63361 11.8937C3.57089 10.8679 2.98646 9.50393 2.98646 8.05456C2.98646 6.6052 3.57089 5.24252 4.63361 4.21673C5.69566 3.19095 7.10741 2.62618 8.60964 2.62618C10.1119 2.62618 11.5243 3.19095 12.5864 4.21673C13.6491 5.24252 14.2342 6.60585 14.2342 8.05522C14.2342 9.50458 13.6498 10.8679 12.5864 11.8944C11.5236 12.9201 10.1126 13.4836 8.60964 13.4836C7.10673 13.4836 5.6943 12.9188 4.63361 11.8937Z" fill="#C1C1C1"/>
</svg>
