<svg width="27" height="27" viewBox="0 0 27 27" fill="none" xmlns="http://www.w3.org/2000/svg">
<path d="M14.1406 9.47034H12.8593C12.6601 9.47034 12.4745 9.57745 12.3748 9.75008L11.7342 10.8596C11.6345 11.0322 11.6345 11.2466 11.7342 11.4192L12.3748 12.5287C12.4745 12.7013 12.6601 12.8085 12.8593 12.8085H14.1404C14.3398 12.8085 14.5256 12.7011 14.6251 12.5287L15.2658 11.419C15.3652 11.2466 15.3652 11.0324 15.2658 10.86V10.8598L14.6251 9.75028C14.5256 9.57766 14.3398 9.47034 14.1406 9.47034ZM14.0069 12.0174H12.993L12.4861 11.1393L12.993 10.2614H14.0069L14.5139 11.1393L14.0069 12.0174Z" fill="#6074E2"/>
<path d="M18.8945 9.85744H18.0491C17.9483 9.49942 17.8052 9.15459 17.6227 8.82953L18.2209 8.23153C18.473 7.97919 18.4732 7.57091 18.2209 7.31877L17.3207 6.41837C17.0683 6.16624 16.66 6.16603 16.4079 6.41837L15.8097 7.01658C15.4849 6.83407 15.1398 6.69111 14.7818 6.59038V5.74477C14.7818 5.38902 14.4924 5.0994 14.1366 5.0994H12.8632C12.5074 5.0994 12.2178 5.38902 12.2178 5.74477V6.59038C11.8598 6.69111 11.5149 6.83407 11.1901 7.01658L10.5919 6.41837C10.3398 6.16603 9.93127 6.16603 9.67913 6.41837L8.77873 7.31877C8.52721 7.57029 8.52721 7.9798 8.77873 8.23132L9.37714 8.82953C9.19463 9.15459 9.05147 9.49942 8.95074 9.85744H8.10534C7.74938 9.85744 7.45996 10.1469 7.45996 10.5028V11.7761C7.45996 12.1318 7.74938 12.4214 8.10534 12.4214H8.95074C9.05147 12.7792 9.19463 13.1241 9.37714 13.4491L8.77873 14.0476C8.52721 14.2991 8.52721 14.7086 8.77873 14.9601L9.67913 15.8605C9.93127 16.1128 10.3398 16.1126 10.5919 15.8605L11.1901 15.2623C11.5149 15.4448 11.8598 15.5878 12.2178 15.6885V16.5341C12.2178 16.8899 12.5074 17.1793 12.8632 17.1793H14.1366C14.4924 17.1793 14.7818 16.8899 14.7818 16.5341V15.6885C15.1398 15.5878 15.4846 15.4448 15.8097 15.2623L16.4079 15.8603C16.66 16.1128 17.0683 16.1128 17.3207 15.8605L18.2209 14.9603C18.4732 14.708 18.4732 14.2997 18.2209 14.0476L17.6227 13.4493C17.8052 13.1241 17.9483 12.7792 18.0491 12.4214H18.8945C19.2504 12.4214 19.5398 12.1318 19.5398 11.7761V10.5028C19.5398 10.1469 19.2504 9.85744 18.8945 9.85744ZM18.7488 11.6304H17.937C17.6422 11.6304 17.3849 11.8309 17.3114 12.118C17.2195 12.4773 17.0766 12.8217 16.8868 13.142C16.7356 13.397 16.7758 13.7208 16.9843 13.9297L17.5586 14.5038L16.8644 15.1982L16.2901 14.6239C16.0814 14.4152 15.7576 14.3753 15.5024 14.5265C15.1822 14.7162 14.8376 14.8592 14.4786 14.951C14.1914 15.0244 13.9908 15.2817 13.9908 15.5766V16.3885H13.009V15.5766C13.009 15.2817 12.8084 15.0244 12.5212 14.951C12.162 14.859 11.8175 14.7162 11.4974 14.5265C11.2422 14.3753 10.9184 14.4152 10.7097 14.6239L10.1354 15.1982L9.44121 14.5038L10.0155 13.9295C10.224 13.7208 10.2642 13.3972 10.113 13.142C9.92323 12.8217 9.78027 12.4773 9.6884 12.118C9.61486 11.8311 9.35757 11.6304 9.06259 11.6304H8.25098V10.6485H9.06259C9.35757 10.6485 9.61486 10.448 9.6884 10.1609C9.78027 9.80161 9.92323 9.45719 10.113 9.13687C10.2642 8.88164 10.224 8.55782 10.0155 8.34936L9.44121 7.77505L10.1354 7.08085L10.7097 7.65516C10.9184 7.86362 11.2424 7.90359 11.4974 7.75239C11.8173 7.56287 12.162 7.41991 12.5212 7.32783C12.8084 7.2545 13.009 6.99721 13.009 6.70223V5.89062H13.9908V6.70223C13.9908 6.99701 14.1914 7.25429 14.4784 7.32783C14.8378 7.41991 15.1825 7.56287 15.5024 7.75239C15.7574 7.90379 16.0814 7.86362 16.2899 7.65516L16.8644 7.08085L17.5586 7.77505L16.9843 8.34936C16.7758 8.55803 16.7356 8.88185 16.8868 9.13708C17.0766 9.45719 17.2195 9.80161 17.3114 10.1609C17.3849 10.448 17.6422 10.6485 17.937 10.6485H18.7488V11.6304Z" fill="#6074E2"/>
<path d="M13.5001 8.02982C11.7854 8.02982 10.3904 9.4248 10.3904 11.1393C10.3904 12.854 11.7854 14.249 13.5001 14.249C15.2147 14.249 16.6097 12.854 16.6097 11.1393C16.6097 9.4248 15.2147 8.02982 13.5001 8.02982ZM13.5001 13.458C12.2217 13.458 11.1814 12.4179 11.1814 11.1393C11.1814 9.86089 12.2217 8.82083 13.5001 8.82083C14.7785 8.82083 15.8185 9.86089 15.8185 11.1393C15.8185 12.4179 14.7785 13.458 13.5001 13.458Z" fill="#6074E2"/>
<path d="M2.35892 1.81195C2.05735 1.81195 1.81201 2.05729 1.81201 2.35886V18.0723C1.81201 18.3738 2.05735 18.6192 2.35892 18.6192H24.6415C24.943 18.6192 25.1882 18.3738 25.1882 18.0723C25.1882 17.4067 25.1882 3.02587 25.1882 2.35886C25.1882 2.05729 24.943 1.81195 24.6415 1.81195C24.4365 1.81195 2.55606 1.81195 2.35892 1.81195ZM24.3972 3.62367H4.41474V2.60297H24.3972V3.62367ZM2.60303 2.60297H3.62373V3.62367H2.60303V2.60297ZM2.60303 17.828V4.41468H24.3972V17.828H2.60303Z" fill="#6074E2"/>
<path d="M24.6411 0H2.35883C1.05798 0 0 1.05819 0 2.35862V18.0722C0 19.3728 1.05798 20.4308 2.35883 20.4308H12.1985V22.9021H7.96576C7.2627 22.9021 6.69087 23.474 6.69087 24.177V24.2304C6.69087 24.9332 7.2627 25.5051 7.96576 25.5051H12.599C12.8175 25.5051 12.9945 25.3281 12.9945 25.1095C12.9945 24.8912 12.8175 24.714 12.599 24.714H7.96576C7.699 24.714 7.48188 24.4971 7.48188 24.2304V24.177C7.48188 23.9103 7.699 23.6933 7.96576 23.6933H19.0342C19.3009 23.6933 19.5181 23.9103 19.5181 24.177V24.2304C19.5181 24.4971 19.3009 24.714 19.0342 24.714H14.4449C14.2263 24.714 14.0494 24.8912 14.0494 25.1095C14.0494 25.3281 14.2263 25.5051 14.4449 25.5051H19.0342C19.7372 25.5051 20.3091 24.9332 20.3091 24.2304V24.177C20.3091 23.474 19.7372 22.9021 19.0342 22.9021H14.8014V20.4308H24.6411C25.9418 20.4308 26.9999 19.3728 26.9999 18.0722V12.0623C26.9999 11.8438 26.823 11.6668 26.6044 11.6668C26.3859 11.6668 26.2089 11.8438 26.2089 12.0623V18.0722C26.2089 18.9365 25.5057 19.6398 24.6411 19.6398C24.1976 19.6398 2.49355 19.6398 2.35862 19.6398C1.49428 19.6398 0.791014 18.9365 0.791014 18.0722V2.35862C0.791014 1.49428 1.49427 0.791014 2.35883 0.791014H24.6413C25.5057 0.791014 26.2089 1.49428 26.2089 2.35862V10.2164C26.2089 10.435 26.3859 10.6119 26.6044 10.6119C26.823 10.6119 26.9999 10.435 26.9999 10.2164V2.35862C26.9999 1.05819 25.9418 0 24.6411 0V0ZM14.0104 20.4308V22.9021H12.9895V20.4308H14.0104Z" fill="#6074E2"/>
</svg>
