<svg width="27" height="27" viewBox="0 0 27 27" fill="none" xmlns="http://www.w3.org/2000/svg">
<path d="M26.0357 0H6.75001C6.217 0 5.78572 0.431282 5.78572 0.964296V5.78572H0.964296C0.431282 5.78572 0 6.217 0 6.75001V26.0357C0 26.5687 0.431282 27 0.964296 27H20.25C20.783 27 21.2143 26.5687 21.2143 26.0357V21.2143H26.0357C26.5687 21.2143 27 20.783 27 20.25V0.964296C27 0.431282 26.5687 0 26.0357 0V0ZM19.2857 25.0714H1.92859V7.71431H19.2857V25.0714H19.2857ZM25.0714 19.2857H21.2143V6.75001C21.2143 6.217 20.783 5.78572 20.25 5.78572H7.71431V1.92859H25.0715V19.2857H25.0714Z" fill="white"/>
</svg>
