<svg width="21" height="20" viewBox="0 0 21 20" fill="none" xmlns="http://www.w3.org/2000/svg">
<path d="M20.614 2.36769C19.8703 2.76923 19.0778 3.03538 18.2515 3.16462C19.1015 2.54 19.7503 1.55846 20.0553 0.375385C19.2628 0.956923 18.3878 1.36769 17.4553 1.59692C16.7028 0.610769 15.6303 0 14.4603 0C12.1903 0 10.3628 2.26769 10.3628 5.04769C10.3628 5.44769 10.3903 5.83231 10.4578 6.19846C7.04901 5.99385 4.03276 3.98308 2.00651 0.92C1.65276 1.67538 1.44526 2.54 1.44526 3.47077C1.44526 5.21846 2.17651 6.76769 3.26651 7.66462C2.60776 7.64923 1.96151 7.41385 1.41401 7.04308C1.41401 7.05846 1.41401 7.07846 1.41401 7.09846C1.41401 9.55077 2.83526 11.5877 4.69901 12.0569C4.36526 12.1692 4.00151 12.2231 3.62401 12.2231C3.36151 12.2231 3.09651 12.2046 2.84776 12.1369C3.37901 14.1354 4.88651 15.6046 6.67901 15.6523C5.28401 16.9954 3.51276 17.8046 1.59526 17.8046C1.25901 17.8046 0.936514 17.7862 0.614014 17.7354C2.43026 19.1769 4.58276 20 6.90401 20C14.449 20 18.574 12.3077 18.574 5.64C18.574 5.41692 18.5678 5.20154 18.559 4.98769C19.3728 4.27692 20.0565 3.38923 20.614 2.36769Z" fill="#1CA1F2"/>
</svg>
