<svg width="32" height="32" viewBox="0 0 32 32" fill="none" xmlns="http://www.w3.org/2000/svg">
<path d="M25.5503 22.4197L20.6853 21.7495V21.1532C22.4829 20.5369 23.9979 19.5791 25.0582 18.3889C26.1185 17.1987 26.6816 15.8237 26.6834 14.4203V14.1991C27.3274 14.115 27.9268 13.9097 28.4175 13.6053C28.9081 13.3009 29.2717 12.9086 29.4694 12.4705C29.667 12.0324 29.6913 11.5649 29.5397 11.1179C29.388 10.6708 29.0661 10.2611 28.6083 9.93242V6.95359C28.6052 5.11004 27.5598 3.34261 25.7013 2.03903C23.8429 0.73544 21.3232 0.00214408 18.6949 0H13.3051C10.6768 0.00214408 8.15712 0.73544 6.29866 2.03903C4.4402 3.34261 3.39478 5.11004 3.39172 6.95359V9.93377C2.93392 10.2625 2.612 10.6722 2.46034 11.1192C2.30867 11.5663 2.33296 12.0338 2.53061 12.4719C2.72826 12.91 3.09185 13.3022 3.58255 13.6066C4.07324 13.9111 4.67261 14.1163 5.31665 14.2004V14.4216C5.31879 15.8249 5.882 17.1995 6.94229 18.3895C8.00257 19.5795 9.51743 20.537 11.3147 21.1532V21.7495L6.44966 22.4197C4.63441 22.6719 2.99977 23.3574 1.82387 24.3596C0.647975 25.3619 0.00346497 26.619 0 27.917V31.5274C0 31.6528 0.070981 31.773 0.197329 31.8616C0.323677 31.9502 0.495042 32 0.673725 32H31.3263C31.505 32 31.6763 31.9502 31.8027 31.8616C31.929 31.773 32 31.6528 32 31.5274V27.917C31.9965 26.619 31.352 25.3619 30.1761 24.3596C29.0002 23.3574 27.3656 22.6719 25.5503 22.4197ZM26.6834 13.2283V10.1822C27.1479 10.2823 27.5544 10.4842 27.8432 10.7584C28.1321 11.0325 28.2879 11.3644 28.2879 11.7052C28.2879 12.0461 28.1321 12.378 27.8432 12.6521C27.5544 12.9263 27.1479 13.1282 26.6834 13.2283ZM4.73917 6.95359C4.74172 5.3606 5.64502 3.83337 7.25089 2.70695C8.85676 1.58054 11.0341 0.946935 13.3051 0.945148H18.6949C20.9659 0.946935 23.1432 1.58054 24.7491 2.70695C26.355 3.83337 27.2583 5.3606 27.2608 6.95359V9.31618C27.1657 9.29161 27.0683 9.26974 26.9709 9.25084C26.9521 9.24732 26.9324 9.24516 26.9143 9.24165C26.8373 9.22788 26.7603 9.21465 26.6834 9.20412V7.08861C26.6834 7.02654 26.666 6.96507 26.6322 6.90772C26.5983 6.85037 26.5487 6.79826 26.4861 6.75437C26.4236 6.71048 26.3493 6.67567 26.2675 6.65193C26.1857 6.6282 26.0981 6.616 26.0096 6.61603C23.7686 6.61603 20.2144 4.79649 19.0341 4.09519C18.9146 4.02405 18.7635 3.9844 18.6069 3.98306C18.4502 3.98173 18.2978 4.01881 18.1759 4.0879C15.7066 5.48348 9.036 6.61603 5.99038 6.61603C5.90189 6.616 5.81425 6.6282 5.73249 6.65193C5.65073 6.67567 5.57644 6.71048 5.51387 6.75437C5.4513 6.79826 5.40167 6.85037 5.36783 6.90772C5.33399 6.96507 5.3166 7.02654 5.31665 7.08861V9.20412C5.24235 9.21384 5.16959 9.2268 5.09644 9.24003C5.07411 9.24408 5.05101 9.24678 5.02868 9.25111C4.93089 9.26911 4.83439 9.2908 4.73917 9.31618V6.95359ZM3.71126 11.7036C3.71095 11.4732 3.7819 11.2455 3.91922 11.0361C4.05654 10.8268 4.25695 10.6409 4.50664 10.4911C4.74262 10.3496 5.01792 10.2439 5.31511 10.1809V13.2283C4.851 13.1273 4.44506 12.9248 4.15653 12.6505C3.86801 12.3763 3.71199 12.0445 3.71126 11.7036ZM6.6641 14.4203V7.54768C9.97228 7.42022 15.7459 6.42349 18.5794 5.05438C19.6889 5.66981 22.7738 7.26872 25.3359 7.52608V14.4203C25.3359 16.157 24.3523 17.8227 22.6015 19.0508C20.8507 20.2788 18.476 20.9688 16 20.9688C13.524 20.9688 11.1493 20.2788 9.39852 19.0508C7.6477 17.8227 6.6641 16.157 6.6641 14.4203ZM16 21.9139C17.1341 21.914 18.2609 21.7869 19.3378 21.5375V23.7448C19.3378 24.3658 18.9862 24.9613 18.3602 25.4003C17.7342 25.8394 16.8852 26.0861 16 26.0861C15.1148 26.0861 14.2658 25.8394 13.6398 25.4003C13.0138 24.9613 12.6622 24.3658 12.6622 23.7448V21.5375C13.7391 21.7869 14.8659 21.914 16 21.9139ZM30.6526 31.0549H1.34745V27.917C1.35036 26.8379 1.88616 25.7929 2.86369 24.9597C3.84123 24.1265 5.20011 23.5567 6.70914 23.347L11.3147 22.7124V23.7448C11.3147 24.6164 11.8084 25.4523 12.687 26.0687C13.5657 26.685 14.7574 27.0312 16 27.0312C17.2426 27.0312 18.4343 26.685 19.313 26.0687C20.1917 25.4523 20.6853 24.6164 20.6853 23.7448V22.7124L25.2909 23.347C26.7999 23.5567 28.1588 24.1265 29.1363 24.9597C30.1138 25.7929 30.6496 26.8379 30.6526 27.917V31.0549Z" fill="#6074E2"/>
<path d="M20.8547 16.3747C20.9355 16.3376 21.0024 16.292 21.0515 16.2405C21.1006 16.1891 21.131 16.1328 21.1409 16.0748C21.1508 16.0168 21.14 15.9583 21.1092 15.9027C21.0784 15.847 21.0282 15.7953 20.9614 15.7504C20.8946 15.7055 20.8125 15.6684 20.7198 15.6411C20.6272 15.6138 20.5257 15.597 20.4213 15.5915C20.317 15.586 20.2116 15.5919 20.1114 15.609C20.0111 15.6261 19.9179 15.654 19.8371 15.6911C19.3598 15.9355 18.7992 16.1242 18.1883 16.2464C17.5775 16.3685 16.9289 16.4215 16.2806 16.4023C15.6325 16.4216 14.9841 16.3688 14.3733 16.2468C13.7626 16.1248 13.202 15.9363 12.7246 15.6922C12.6437 15.655 12.5505 15.6271 12.4503 15.61C12.3501 15.5929 12.2447 15.587 12.1403 15.5925C12.0359 15.598 11.9345 15.6148 11.8419 15.6421C11.7492 15.6694 11.6671 15.7065 11.6003 15.7514C11.5335 15.7963 11.4833 15.848 11.4525 15.9037C11.4217 15.9593 11.4109 16.0178 11.4208 16.0758C11.4307 16.1338 11.4611 16.1901 11.5102 16.2416C11.5593 16.293 11.6262 16.3386 11.707 16.3757C12.9564 17.0017 14.5994 17.3296 16.2806 17.2883C17.9623 17.3294 19.6054 17.0012 20.8547 16.3747Z" fill="#6074E2"/>
<path d="M21.9417 11.7342C22.37 11.7342 22.7887 11.6636 23.1448 11.5315C23.5009 11.3994 23.7785 11.2116 23.9424 10.9918C24.1063 10.7721 24.1492 10.5303 24.0656 10.297C23.982 10.0638 23.7758 9.84949 23.4729 9.68131C23.1701 9.51314 22.7842 9.39861 22.3641 9.35221C21.9441 9.30581 21.5087 9.32962 21.1129 9.42064C20.7172 9.51166 20.379 9.66579 20.1411 9.86354C19.9031 10.0613 19.7761 10.2938 19.7761 10.5316C19.7768 10.8504 20.0052 11.1561 20.4112 11.3815C20.8172 11.6069 21.3676 11.7338 21.9417 11.7342ZM21.9417 10.2152C22.0544 10.2152 22.1646 10.2337 22.2583 10.2685C22.352 10.3033 22.425 10.3527 22.4682 10.4105C22.5113 10.4684 22.5226 10.532 22.5006 10.5934C22.4786 10.6548 22.4243 10.7111 22.3446 10.7554C22.2649 10.7997 22.1634 10.8298 22.0528 10.842C21.9423 10.8542 21.8277 10.848 21.7236 10.824C21.6195 10.8 21.5304 10.7595 21.4678 10.7074C21.4052 10.6554 21.3718 10.5942 21.3718 10.5316C21.3719 10.4477 21.432 10.3673 21.5388 10.3079C21.6457 10.2486 21.7906 10.2152 21.9417 10.2152Z" fill="#6074E2"/>
<path d="M12.7852 10.5307C12.7852 10.2928 12.6582 10.0603 12.4202 9.86257C12.1823 9.66481 11.8441 9.51068 11.4484 9.41966C11.0527 9.32865 10.6172 9.30483 10.1972 9.35123C9.77709 9.39763 9.39123 9.51216 9.08838 9.68034C8.78552 9.84852 8.57927 10.0628 8.49571 10.2961C8.41215 10.5293 8.45504 10.7711 8.61894 10.9908C8.78285 11.2106 9.06041 11.3984 9.41653 11.5305C9.77266 11.6627 10.1913 11.7332 10.6196 11.7332C11.1938 11.7328 11.7442 11.606 12.1501 11.3805C12.5561 11.1551 12.7845 10.8495 12.7852 10.5307ZM10.6196 10.8471C10.5069 10.8471 10.3968 10.8286 10.303 10.7938C10.2093 10.759 10.1363 10.7096 10.0931 10.6518C10.05 10.5939 10.0387 10.5303 10.0607 10.4689C10.0827 10.4075 10.137 10.3511 10.2167 10.3069C10.2964 10.2626 10.3979 10.2325 10.5085 10.2203C10.619 10.2081 10.7336 10.2143 10.8377 10.2383C10.9419 10.2622 11.0309 10.3028 11.0935 10.3548C11.1561 10.4069 11.1895 10.4681 11.1895 10.5307C11.1896 10.5723 11.175 10.6135 11.1464 10.652C11.1179 10.6905 11.0759 10.7254 11.023 10.7549C10.9701 10.7844 10.9072 10.8078 10.838 10.8238C10.7688 10.8398 10.6946 10.8481 10.6196 10.8481V10.8471Z" fill="#6074E2"/>
</svg>
